<svg xmlns="http://www.w3.org/2000/svg" xmlns:xlink="http://www.w3.org/1999/xlink" viewBox="0 0 512 512">
    <defs>
        <style>
            .cls-1 {
                fill:none;
            }
            .cls-2 {
                fill: #000;
            }
            .cls-3 {
                clip-path:url(#clip-path);
            }
            @media (prefers-color-scheme: dark) {
                .cls-2 {
                    fill: #fff;
                }
            }
        </style>
        <clipPath id="clip-path">
            <circle class="cls-1" cx="256" cy="256" r="256" />
        </clipPath>
    </defs>
    <title>SnotelLogo</title>
    <g id="Outline_wide" data-name="Outline wide">
        <path class="cls-2" d="M256,0C114.62,0,0,114.62,0,256S114.62,512,256,512,512,397.38,512,256,397.38,0,256,0Zm0,488C127.87,488,24,384.13,24,256S127.87,24,256,24,488,127.87,488,256,384.13,488,256,488Z" />
    </g>
    <g id="Mountain">
        <g class="cls-3">
            <path class="cls-2" d="M319.9,310c-2.28,0-9.75,5.49-31.85,23.5-27.4,22.34-33,26.41-57,40.9a301.13,301.13,0,0,1-43.3,22.3c-3.93,1.67-13.1,6.14-20.45,9.93l-13.27,6.88-3.54-.32a34.11,34.11,0,0,1-12.41-3.33l-3.25-1.57L127.58,410l-7.29,1.66L113,417.8c-12.07,10.25-16.91,12.61-24.49,12.05-4.84-.37-8.55-1.2-16-3.55a86.49,86.49,0,0,0-18.46-4.16l-4.67-.51-2.68,1.81c-3.53,2.3-14.18,11.68-19.82,17.45-2.51,2.54-10.37,9.37-17.43,15.23-7.86,6.47-15.73,13.44-19.94,17.78-9.8,9.92-22.45,22.3-29.4,28.62-9.85,9.1-13.67,11.68-25.35,17.27-19.25,9.28-21.93,11.17-18.57,12.93S-57.51,535-15,534.19l21.36-.37,12,2.77,17.54,4c3.08.7,9.4,2.31,14,3.6s12.82,3.56,18.23,5,15.55,4.61,22.5,6.92c23.13,7.71,32.47,10.62,44.26,13.85,19.6,5.31,23.47,5.91,45.86,6.88,18.34.79,23.93,1.25,43.86,3.42,3.42.37,9.57.92,13.68,1.24l7.4.51,8.55-2.4c12.76-3.6,30.76-8.4,41.3-11.08,5.18-1.29,10-2.54,10.82-2.77s5.64-1.48,10.82-2.77l15.21-3.92c3.93-1,6.56-1.48,8-1.34,1.2.14,10.48,1.06,20.68,2.08l18.51,1.89,30.48.46,30.48.51,20.79-5.59c33.55-9,39.93-10.66,43.86-11.4,4.67-.88,13.45-.88,23.07,0,4.05.37,11,1,15.39,1.34s13.84.83,21,1l13,.33,6.38-5.08,6.38-5,25.8-11.69c14.19-6.46,26.32-12.05,27-12.46,1.88-1.29,1-3.09-3.14-6.05-1.93-1.38-18.51-14.68-36.86-29.55-33.32-27.05-37.76-30.28-43.23-31.81-4.16-1.1-7.12-.37-14.19,3.51-6.78,3.74-9.85,4.94-16.06,6.1-9.63,1.75-8.72,1.94-14.19-3-4.38-4-5.29-4.52-11.73-7.34l-7-3.05-4.16.47c-2.33.27-5.69.64-7.52.83l-3.3.41-13.84-12.51c-18.06-16.34-23.36-21.28-37.66-35.13-23.75-23-47.62-44.79-54.23-49.63-1.82-1.3-7-4.67-11.56-7.53a169.25,169.25,0,0,1-18.52-13.53c-10.37-8.45-16.35-12.37-20.79-13.57a8,8,0,0,1-3.3-1.71A3.5,3.5,0,0,0,319.9,310Z" />
        </g>
    </g>
    <g id="Snowflake">
        <g class="cls-3">
            <path class="cls-2" d="M243.64-26.68a45.45,45.45,0,0,0-7.91,10.24,10.62,10.62,0,0,0-1.66,6c-.2,3.81.37,5.34,2.9,7.66l1.53,1.42L237.19,6.2c-.73,4.18-1.39,7.93-1.52,8.32s-.66.78-1.8,1c-6.06,1.05-9.15,3.28-9.33,6.66-.19,3.65,3.43,7.43,7.89,8.26l1.66.31-.26,3.65c-.28,3.9-1.78,13-2.23,13.4-.12.12-5.55-3.07-12-7.1s-14.48-8.95-17.79-11S192,23.82,187.22,21s-8.6-5.12-8.68-5.06,11.26,13.42,25.21,29.7l25.36,29.58-.37,2.76c-.87,6.16-2,13.19-2.37,14.08-.17.52-.52.92-.7.88s-3.75-2.12-7.91-4.59C208,82.4,189.54,71.9,189.31,72.05s4.69,5.64,20.81,23.33c6.84,7.48,12.41,13.69,12.4,13.85-.13,1.89-2.52,12.64-2.85,12.82a20.62,20.62,0,0,1-3.61-1.24c-5.8-2.33-17.22-6.52-17.37-6.4s4.63,6.65,10.47,14.66c12.07,16.57,10.56,13.42,12.81,26.15a63.25,63.25,0,0,0,1.45,7c.25,0,1.6-3.64,4.64-12.36l1.8-5.2,11.61-10.59c12.11-11.09,16-14.75,15.77-14.95s-3.7.46-8,1.18c-9,1.55-15.36,2.43-15.64,2.18a50.85,50.85,0,0,1,.71-5.84c.49-3.14.89-6,.91-6.35.05-.95,1.42-2.12,12.18-10.31,13.82-10.51,26.56-20.45,26.38-20.59s-6,2.3-13.07,5.29S245.36,91,242.51,92.12c-5,1.89-5.19,1.91-5.3,1.22-.1-.85,1.34-13.84,1.72-15.52.23-.94,3.88-4,25.8-21.84,27.42-22.27,36.84-30.07,36.6-30.31-.1-.08-10.84,4.26-23.88,9.62-23.23,9.56-35,14.17-35.31,13.83-.17-.14,1.47-17.5,1.65-17.59s1-.4,2.19-.83c2.52-.91,5-2.81,5.65-4.37,1.41-3.33-1.5-8.87-5.09-9.74a1.9,1.9,0,0,1-1.2-.69c-.06-.23.21-4,.62-8.45.75-8,.79-8.06,1.65-8.51a10.25,10.25,0,0,0,4.19-4.29c1.55-3.21,1.23-9.7-.67-14.27a82.34,82.34,0,0,0-5-9.15A9.3,9.3,0,0,0,243.64-26.68Z" />
            <path class="cls-2" d="M105.2,62.84c-.32,8.22-.74,21.09-.91,28.6s-.43,13.73-.51,13.79c-.45.36-16.67-7.28-16.85-7.94a5.76,5.76,0,0,1,.57-2c1.49-3.42.28-8.09-2.6-10.1s-7-1.15-10.93,1.91a9.49,9.49,0,0,1-2.48,1.5c-.58,0-15.74-6.93-16.41-7.49a1.4,1.4,0,0,1-.41-1.07A9,9,0,0,0,52.53,75c-1.5-1.84-5.25-3.74-8.85-4.48-4.46-1-17.92-.84-18,.13a38.74,38.74,0,0,0,2.52,4.64C32,81.71,37.41,86.72,42.06,88.14a14.24,14.24,0,0,0,6.87.17,7.41,7.41,0,0,1,2-.42A84.94,84.94,0,0,1,59,92.1l7.56,4.19-.1,2c-.26,4.92,2.64,8.46,7.1,8.7a10.72,10.72,0,0,0,6.27-1.57l1.94-1,2.59,1.35c6.11,3.29,13.89,7.52,14.1,7.73.49.41-7.82,4.78-31.48,16.51-13,6.47-24,11.93-24.28,12.21-.49.4-.46.44.35.28.52-.1,5.94-1,12.11-2s23.66-4.12,38.9-6.91,28.67-5.26,29.84-5.39L126,128l8,4.07a74,74,0,0,1,7.91,4.4c0,.52-4.74,3-17.21,9.16-15.3,7.53-17.46,8.62-16.88,8.65s18.51-3.54,33.33-6.71c7.39-1.61,14-3,14.7-3.05,1.13-.11,2.17.28,7.67,2.92,3.51,1.68,6.37,3.2,6.36,3.4,0,.52-3.08,3.3-10.31,9.39-3.46,2.92-6.32,5.41-6.4,5.54-.16.38,3.31,0,22.42-2.45l16.84-2.12L202,164c5.26,1.59,9.74,2.83,10,2.78a81.5,81.5,0,0,0-7-6.64c-4.45-4-7.53-7-7.89-7.76s-3.47-8-7-16.24-6.51-15.17-6.65-15.31-2.79,8.77-4.24,15.07a30.42,30.42,0,0,1-1.12,3.92c-.36.7-.44.7-1.9.13-.85-.3-3.84-1.57-6.65-2.83-3.51-1.59-5.18-2.49-5.37-3s-2.13-7.13-4.45-15c-6.73-22.79-8.81-29.66-9.13-29.84s-2.23,25.29-2.27,32.31c0,5-.13,5.94-.57,6a9.11,9.11,0,0,1-3-1c-3.59-1.56-15-7.25-15-7.42S106.12,48.16,105.94,48,105.53,54.6,105.2,62.84Z" />
            <path class="cls-2" d="M338.28,95.67,322.73,130l-6.15,2.29c-7.9,2.92-12.15,4.23-12.64,3.95-.25-.18-.19-2,.22-6.26.73-7.83,1.55-32.48,1.06-32.08-.23.18-3.75,8.42-7.87,18.33s-8.16,19.66-9,21.67l-1.53,3.64-4.92,1.64c-2.7.87-5.81,1.85-6.92,2.19l-2,.54-.32-.76a28.63,28.63,0,0,1-.7-4c-.79-6.41-2.38-15.67-2.65-15.42s-3.84,6.66-8.21,14.53-8.27,14.79-8.67,15.42-3.81,3.39-8.68,6.89c-4.35,3.17-7.8,5.8-7.58,5.87s4.61-.67,9.86-1.67,9.88-1.8,10.32-1.77,7.19,1.55,15,3.43c17.75,4.19,21.84,5.09,22.72,5,.55,0-1-1.81-6.47-7.56-6.55-6.84-8.34-8.93-7.88-9.26s13.15-4.73,13.81-4.7c.43,0,7.76,2.33,16.31,5.1,17.66,5.76,31.08,9.93,31.34,9.74.08-.09-5.76-3.86-13-8.42C314.54,149.75,309,146,309,145.51s16.24-6.67,17.29-6.61c.54,0,13.08,3.62,27.87,8s28.82,8.5,31.19,9.15c8.24,2.35,22.15,6.09,22.26,6s-10.23-6.65-22.83-14.66c-23.22-14.7-30.71-19.7-30.18-20.06s17.25-7.23,17.69-7.21a1.48,1.48,0,0,1,1,.61,13,13,0,0,0,2.6,1.6c4.65,2.27,9.18,1.1,11.28-2.9a13.56,13.56,0,0,0,.84-3.52l.35-2.53L396.1,110c4.31-1.8,8.07-3.3,8.39-3.28a7.1,7.1,0,0,1,1.93.62,14.51,14.51,0,0,0,7.36.42c4.9-1.25,10.47-5.53,14.82-11.44a40.16,40.16,0,0,0,2.79-4.1c.06-1-13.39-2.5-18-2-3.43.34-7.37,1.83-9.13,3.51a9.17,9.17,0,0,0-2.65,4.89,1.4,1.4,0,0,1-.49,1c-.71.42-16.48,5.77-16.95,5.74a9.61,9.61,0,0,1-2.38-1.79c-5.28-4.71-10.32-5-13.24-.72a9,9,0,0,0-1.19,7.51,5.56,5.56,0,0,1,.36,2.14c-.68.56-16.79,6.15-17.59,6.1a36.92,36.92,0,0,1,.33-5.63c.63-6.47,3.71-51.37,3.54-51.55S346.87,76.75,338.28,95.67Z" />
            <path class="cls-2" d="M157.68,172.26c1.55,1.75,4.81,5.32,7.29,8,4.34,4.61,4.44,4.77,3.76,5.29-.41.31-3.36,1.75-6.64,3.22l-5.88,2.63-4.88-1.86c-2.68-1-12.23-4.63-21.25-8.07-17.83-6.78-22.25-8.38-22.48-8.2s15.84,12.82,24.89,19.66A88.59,88.59,0,0,1,140.1,199c-.35.44-4.93,2.46-11.61,5.14l-6.35,2.51L83.47,193.16c-21.29-7.42-38.75-13.46-38.83-13.37a32.18,32.18,0,0,0,3.63,2.87c2.07,1.51,7.88,5.84,12.88,9.63S75.57,203,82.08,207.75s11.8,8.66,11.8,8.79c0,.39-16.42,7.3-17.26,7.26a8.38,8.38,0,0,1-1-1.46,9.87,9.87,0,0,0-5.13-4.12c-3.7-1.5-7.15-.83-9,1.74-1,1.45-1.1,1.71-1.3,5.55l-.21,4L51.74,233c-7.81,3.35-8.21,3.46-9.25,3-3.23-1.38-4-1.58-6.1-1.53-3.45,0-6.1,1.19-9.89,4.25a39.29,39.29,0,0,0-5,4.84c-2.33,2.88-5.17,7.07-4.93,7.32.56.51,8.36,1.54,12.53,1.63,9.27.19,14.89-2.29,17.09-7.53l.74-1.69,8.45-2.92,8.44-3,1.07,1c3.54,3.35,9.29,3.82,12.28,1a9.37,9.37,0,0,0,2.66-5.8,4.07,4.07,0,0,1,.7-2.12c.56-.36,16.6-6,17.26-6.09.88-.11.23,5.37-3.9,32-2.1,13.7-3.79,25.14-3.77,25.44s.53-.3,1.05-1.26,2.93-5.3,5.34-9.68,10-18.64,16.94-31.74,12.76-24.22,13.08-24.72c.47-.73,2.18-1.52,8.75-4,4.5-1.76,8.46-3.15,8.75-3.13.76,0,.37,3.31-2.49,21.19-1.2,7.48-2.15,13.8-2.09,14.07.08.56,7.18-13.44,14.69-29,2.77-5.8,5.29-10.89,5.58-11.4.36-.67,1.93-1.47,6.94-3.49a46.93,46.93,0,0,1,6.93-2.44c.53.22,1,2.72,2.23,13.57.51,4.14.95,7.59,1,7.66.24.24,3.49-4.84,11.13-17.48,4.34-7.15,8-13.16,8.27-13.38s4.18-2.72,8.8-5.55,8.34-5.21,8.27-5.28-4.53.39-9.87,1-10.2,1.1-10.82,1.07c-1-.06-20.63-5.27-32.38-8.59-2.29-.65-4.45-1.18-4.77-1.2S155.9,170.27,157.68,172.26Z" />
            <path class="cls-2" d="M233.85,180.93c1.91,1.86,5.2,5,7.31,7l3.81,3.63,3.39,10.14c6.39,19,8.26,24.21,8.57,23.93.11-.06,1.34-3.46,2.79-7.5,3.16-8.91,4.7-12.65,5.17-12.63s12.17,7.83,12.16,8,1.39,6.18,3.11,13.59c4.56,19.7,7.43,31,7.72,30.32.12-.32.73-7.77,1.34-16.52,1.08-15.82,1.38-18.71,1.92-18.68.18,0,3.67,2.18,7.82,4.82,4.75,3.06,7.59,5.1,7.74,5.57s3.42,12.49,7.25,26.9,7.89,29.15,9,32.8,2.41,8.19,2.92,10.11a27.1,27.1,0,0,0,1.26,3.76c.14.17.71-5.84,1.21-13.33,1.36-19.13,3-39.88,3.42-42.47.18-1.3.48-2.17.73-2.15s3.89,2.19,8.15,4.8l7.75,4.75,0,3.07c0,3.6.68,5.17,2.67,6.77,1.18.95,1.68,1.1,4,1.32,3,.33,5.09-.09,6.9-1.36.8-.55,1.24-.66,1.66-.41s3.74,2.22,7.58,4.55l7,4.22.46,2.25a10,10,0,0,0,4.68,6.54c4.11,2.83,9.23,4.21,17.32,4.64l5.8.3-.21-.76a63,63,0,0,0-4.07-9.13c-2.93-5.15-6.71-8.75-10.53-10a9.68,9.68,0,0,0-6.39-.17,6.28,6.28,0,0,1-2.31.3c-1.41-.89-13.46-9.46-13.95-9.91s-.54-.75.1-2.67c.92-3,.85-6.42-.23-8-2.56-3.82-10.68-3.59-14,.41a4.07,4.07,0,0,1-1.19,1.05c-.26.09-3.18-1.73-6.55-4-6.78-4.6-8.7-6-8.68-6.4,0-.16,6.42-3.12,14.27-6.63s18.33-8.28,23.36-10.67,11.29-5.25,13.9-6.45a31.86,31.86,0,0,0,4.59-2.28c-.07-.1-5.3.54-11.63,1.39s-19.85,2.65-30.14,4l-29.22,3.89L313.14,225l-5.35-3.48c-3-1.92-6.57-4.4-8.11-5.52-2.27-1.72-2.65-2.13-2.23-2.47s3.88-1.92,8-3.83c10.29-4.78,29.73-14.41,29.38-14.56s-10.15,1.4-35.41,5.46l-16.1,2.62-2.67-1.87c-4.91-3.43-8.79-6.41-8.77-6.8a35.81,35.81,0,0,1,4.81-3.67c5.51-3.79,12.62-9,12.48-9.17s-7,.35-15.57.88-17.29,1-19.51,1.13l-4,.15-9.54-3.14c-5.22-1.75-9.65-3.19-9.84-3.2A27.08,27.08,0,0,0,233.85,180.93Z" />
            <path class="cls-2" d="M222,182.52c0,.1-1.52,4.17-3.38,9l-3.41,8.83L202.05,213c-7.23,6.9-13.09,12.63-13,12.7s3.59-.43,14.06-2.53c4.3-.85,7.9-1.48,8-1.41.25.25.47,7.74.31,10.73l-.14,2.8-5.38,4.1c-15.15,11.49-34,26.11-34,26.34a11.87,11.87,0,0,0,3.24-.91l7.67-2.7c2.45-.85,9.9-3.63,16.62-6.19,8.6-3.27,12.23-4.52,12.51-4.24s.28,3.58.11,9l-.24,8.64L181.14,294.3c-16.86,13.72-30.58,25-30.55,25.05s41.08-15.81,51.11-19.86c4.42-1.79,7-2.67,7.18-2.46s.24,3.93.06,8.59l-.25,8.29-2,.12c-5.91.41-10.49,4.51-9.5,8.55.6,2.45,3.07,4.54,7.38,6.23,2.5,1,2.35.35,2.12,10.24l-.13,7.34-2.08,1.43c-3.73,2.61-5,6.27-3.83,11.49.73,3.33,3.52,9.1,6.19,12.86l1.9,2.72.92-.94a66.94,66.94,0,0,0,7.08-9.55,20.07,20.07,0,0,0,2.32-8.21c.19-3.58-.48-5.45-2.62-7.62l-1.73-1.69.54-5.39c.3-3,.68-6.66.9-8.22l.37-2.85,1.44-.29A9.78,9.78,0,0,0,224.6,324c.72-2.67-1.63-6.36-5.1-8.11l-1.63-.8.71-8.65c.39-4.75.85-8.74,1-8.87.49-.36,8.53,4.5,31.36,19,12.46,7.87,22.71,14.29,22.78,14.23.23-.22-15.41-18.81-33-39.16C230.58,279.84,222.19,270,222,269.7c-.27-.51.56-17,.87-17.3s13.54,7.89,31.3,19.41c1.13.71,2,1.15,1.95,1-.19-.56-9.12-10.54-20.26-22.68-5.61-6.14-10.59-11.6-11-12.14-.75-.95-.77-1.31-.58-7.64.17-6.16.23-6.62.81-6.59.91,0,4.42,1.18,13.91,4.52,4.46,1.57,8.25,2.82,8.33,2.72.27-.21-3.13-4.83-13.54-18.47l-8.68-11.34-.44-3.35C223.51,189.27,222.09,181.12,222,182.52Z" />
        </g>
    </g>
</svg>